<svg width="133" height="28" viewBox="0 0 133 28" fill="none" xmlns="http://www.w3.org/2000/svg">
<path fill-rule="evenodd" clip-rule="evenodd" d="M108.134 0.895813V27.2886L113.796 23.3297V18.0512L123.705 27.2886H132.199L123.705 18.0512H125.121C127.008 18.0512 130.783 17.5233 130.783 10.1333C130.783 2.74331 125.829 0.895813 123.941 0.895813H108.134ZM113.798 14.0923V6.17448H122.292C124.557 6.17448 125.123 7.934 125.123 8.81377V11.4531C125.123 13.5645 123.235 14.0923 122.292 14.0923H113.798ZM0.198639 0.896729V27.2896L5.86094 23.3306V18.0521L15.77 27.2896H24.2634L14.3544 18.0521H16.4778C18.3652 18.0521 22.8478 17.5242 22.8478 10.1342C22.8478 2.74423 17.8933 0.896729 16.0059 0.896729H0.198639ZM5.85822 14.0926V6.17476H14.3521C16.6171 6.17476 17.1834 7.93428 17.1834 8.81404V11.4533C17.1834 13.5648 15.2958 14.0926 14.3521 14.0926H5.85822ZM31.3409 0.895813H25.6783V27.2886H31.3409V0.895813ZM47.264 0.895813H33.8161V27.2886H38.7706V19.3708H48.6796C52.2185 19.3708 56.4653 15.9397 56.4653 10.1333C56.4653 2.74331 50.0952 0.895813 47.264 0.895813ZM38.771 14.0923V6.17448H47.2648C49.307 6.17448 50.8039 7.41855 50.8039 8.81377V11.4531C50.8039 13.4325 48.6805 14.0923 47.2648 14.0923H38.771ZM59.4738 0.895813H72.9218C75.7529 0.895813 82.123 2.74331 82.123 10.1333C82.123 15.9397 77.8763 19.3708 74.3374 19.3708H64.4283V27.2886H59.4738V0.895813ZM64.4302 6.17448V14.0923H72.9241C74.3397 14.0923 76.4632 13.4325 76.4632 11.4531V8.81377C76.4632 7.41855 74.9662 6.17448 72.9241 6.17448H64.4302ZM83.3621 0.895813H89.2604V21.3503H105.48V27.2886H83.3621V0.895813Z" fill="#153E60"/>
</svg>
