<svg width="47" height="47" viewBox="0 0 47 47" fill="none" xmlns="http://www.w3.org/2000/svg">
<path fill-rule="evenodd" clip-rule="evenodd" d="M22.141 2.71551C22.8902 2.67315 23.4633 2.03141 23.4209 1.28215C23.3785 0.532891 22.7368 -0.0401594 21.9876 0.00220554C6.68198 0.867622 0.459994 13.0094 0.00415467 18.8731C-0.05401 19.6213 0.505372 20.275 1.25357 20.3331C2.00177 20.3913 2.65545 19.8319 2.71362 19.0837C3.08599 14.2937 8.45902 3.48912 22.141 2.71551ZM25.1433 23.0751C25.1433 24.2629 24.1623 25.2746 22.8917 25.2746C21.621 25.2746 20.64 24.2629 20.64 23.0751C20.64 21.8874 21.621 20.8757 22.8917 20.8757C24.1623 20.8757 25.1433 21.8874 25.1433 23.0751ZM27.861 23.0751C27.861 25.7908 25.6361 27.9922 22.8917 27.9922C20.1472 27.9922 17.9224 25.7908 17.9224 23.0751C17.9224 20.3595 20.1472 18.158 22.8917 18.158C25.6361 18.158 27.861 20.3595 27.861 23.0751ZM31.2363 2.73313C31.6084 2.0814 32.4383 1.85467 33.0901 2.22672C38.6651 5.40929 41.7624 8.86365 43.5555 12.2459C45.2109 15.3684 45.7058 18.3542 46.0953 20.7045L46.0953 20.7046V20.7046C46.1238 20.8767 46.1518 21.0453 46.1796 21.2104C46.3042 21.9504 45.8053 22.6514 45.0653 22.7761C44.3253 22.9007 43.6243 22.4018 43.4997 21.6618C43.4741 21.5098 43.4486 21.357 43.423 21.2032L43.4223 21.1994L43.422 21.1972L43.4217 21.1956C43.0266 18.8238 42.5957 16.2374 41.1544 13.5189C39.6347 10.6524 36.9345 7.55065 31.7427 4.58687C31.091 4.21481 30.8643 3.38487 31.2363 2.73313ZM44.4114 32.26C44.7316 31.5812 44.4408 30.7715 43.7621 30.4514C43.0833 30.1312 42.2736 30.422 41.9535 31.1007C39.2343 36.8663 34.975 39.9616 30.1567 42.3454C29.484 42.6782 29.2085 43.4932 29.5413 44.1659C29.8741 44.8385 30.6891 45.114 31.3618 44.7812C36.4821 42.248 41.3331 38.7871 44.4114 32.26ZM2.40278 31.2869C3.07258 30.9485 3.88993 31.2171 4.22838 31.8869C9.66576 42.6474 20.0025 43.6959 24.4702 43.4359C25.2194 43.3923 25.8621 43.9643 25.9057 44.7135C25.9493 45.4626 25.3773 46.1053 24.6282 46.1489C19.7094 46.4352 7.96046 45.2984 1.80282 33.1125C1.46437 32.4427 1.73298 31.6254 2.40278 31.2869ZM11.5938 14.8193C12.013 14.1968 11.8483 13.3524 11.2258 12.9332C10.6033 12.514 9.75891 12.6787 9.33971 13.3012C5.79486 18.5648 4.37985 26.6176 9.82444 33.3535C10.2962 33.9371 11.1518 34.0278 11.7354 33.5561C12.319 33.0843 12.4097 32.2287 11.938 31.6451C7.44641 26.0883 8.51573 19.3898 11.5938 14.8193ZM32.0173 10.4813C31.73 11.175 30.9349 11.5056 30.2415 11.2196C27.7546 10.1941 25.7665 9.45927 23.5816 9.32129C21.4314 9.1855 18.9696 9.62525 15.6017 11.1953C14.921 11.5127 14.1128 11.2188 13.7966 10.5388C13.4804 9.85893 13.7759 9.05048 14.4566 8.73313C18.124 7.0234 21.0433 6.43806 23.758 6.6095C26.438 6.77876 28.7985 7.68345 31.2819 8.70745C31.9753 8.99338 32.3046 9.78754 32.0173 10.4813ZM22.5349 15.8267C23.2853 15.793 23.8686 15.1584 23.8377 14.4093C23.8068 13.6603 23.1734 13.0804 22.423 13.1141C17.135 13.352 13.6686 17.2953 12.957 21.5779C12.2335 25.9324 14.3318 30.6983 19.9763 32.5594C20.6887 32.7943 21.4591 32.4075 21.6972 31.6954C21.9352 30.9833 21.5507 30.2157 20.8383 29.9808C16.5434 28.5646 15.1212 25.1356 15.6402 22.0121C16.1712 18.8166 18.7102 15.9987 22.5349 15.8267ZM25.3974 14.6861C25.066 15.3578 25.3439 16.1725 26.0179 16.5059C28.4478 17.7076 30.1326 20.4129 30.1765 23.1425C30.2182 25.7302 28.7758 28.5196 24.5154 29.9859C23.8061 30.23 23.4316 31.0026 23.6789 31.7116C23.9261 32.4206 24.7015 32.7974 25.4107 32.5533C30.6741 30.7419 32.9584 26.9752 32.8961 23.1094C32.8361 19.3854 30.5864 15.7397 27.2178 14.0737C26.5437 13.7403 25.7287 14.0145 25.3974 14.6861ZM20.2602 36.664C19.553 36.4048 18.7668 36.7621 18.5042 37.4622C18.2416 38.1623 18.602 38.9399 19.3091 39.1992C21.254 39.912 23.7129 39.8782 26.1506 39.286C28.6125 38.6879 31.184 37.4905 33.4042 35.715C37.8962 32.1224 40.9345 26.1551 38.7039 18.2044C38.5021 17.4853 37.7493 17.0647 37.0224 17.2651C36.2955 17.4655 35.8698 18.2109 36.0716 18.93C37.9797 25.7313 35.4271 30.623 31.6883 33.613C29.793 35.1288 27.5891 36.1535 25.5018 36.6606C23.3902 37.1736 21.526 37.1279 20.2602 36.664Z" fill="#153E60"/>
</svg>
